<svg version="1.1" id="Layer_1" xmlns="http://www.w3.org/2000/svg" xmlns:xlink="http://www.w3.org/1999/xlink" x="0px" y="0px"
 	 viewBox="0 0 77.4 77" width="77.4" height="77"  style="enable-background:new 0 0 77.4 77;" xml:space="preserve">
 <style type="text/css">
 	.st0{fill-rule:evenodd;clip-rule:evenodd;fill:#FF9300;}
 	.st1{fill:#FFFFFF;}
 </style>
 <title>83_x_83</title>
 <g>
 	<title>beboConnect</title>
 	<path class="st0" d="M75.7,23.4v18.3c0,11.8-9.6,21.4-21.4,21.4v9.3c0,1.2-0.9,2.3-2.1,2.4c-0.3,0-0.5,0-0.8-0.1
 		c-0.5-0.9-1.1-1.8-1.8-2.7c-4.5-5.4-12.5-9-21.8-9h-4.1c-11.8,0-21.4-9.6-21.4-21.4V23.4C2.3,11.6,11.9,2,23.7,2h30.5
 		C66.1,2,75.7,11.6,75.7,23.4z"/>
 	<path class="st1" d="M47.2,13.8c0.7,0,1.3,0.6,1.3,1.3V19c0,0.7-0.6,1.3-1.3,1.3h-4.3c-0.7,0-1.3-0.6-1.3-1.3v-3.9
 		c0-0.7,0.6-1.3,1.3-1.3H47.2 M47.2,12.6h-4.3c-1.4,0-2.5,1.1-2.5,2.4c0,0,0,0,0,0V19c0,1.4,1.1,2.5,2.5,2.5c0,0,0,0,0,0h4.3
 		c1.4,0,2.5-1.1,2.5-2.4c0,0,0,0,0,0v-3.9C49.6,13.7,48.5,12.6,47.2,12.6C47.2,12.6,47.2,12.6,47.2,12.6z"/>
 	<path class="st1" d="M41.9,18.7c1.7,0,3.1,1.4,3.1,3.1v5.6c0,1.7-1.4,3.1-3.1,3.1h-6.6c-1.7,0-3.1-1.4-3.1-3.1v-5.6
 		c0-1.7,1.4-3.1,3.1-3.1H41.9 M41.9,17.1h-6.6c-2.6,0-4.6,2.1-4.6,4.6c0,0,0,0,0,0v5.6c0,2.6,2.1,4.6,4.6,4.6h0h6.6
 		c2.6,0,4.6-2.1,4.6-4.6c0,0,0,0,0,0v-5.6C46.5,19.2,44.5,17.1,41.9,17.1L41.9,17.1z"/>
 	<path class="st1" d="M47.3,29.2c2.1,0,3.8,1.7,3.8,3.8v9.3c0,2.1-1.7,3.8-3.8,3.8H35.7c-2.1,0-3.8-1.7-3.8-3.8V33
 		c0-2.1,1.7-3.8,3.8-3.8H47.3 M47.3,27.3H35.7c-3.1,0-5.7,2.5-5.7,5.7v9.3c0,3.1,2.5,5.7,5.7,5.7h11.6c3.1,0,5.7-2.5,5.7-5.7V33
 		C52.9,29.9,50.4,27.3,47.3,27.3L47.3,27.3z"/>
 	<path class="st1" d="M39,37.7c1.8,0,3.3,1.5,3.3,3.3v8.3c0,1.8-1.5,3.3-3.3,3.3H28.8c-1.8,0-3.3-1.5-3.3-3.3V41
 		c0-1.8,1.5-3.3,3.3-3.3L39,37.7 M39,36H28.8c-2.8,0-5,2.2-5,5v8.3c0,2.8,2.2,5,5,5H39c2.8,0,5-2.2,5-5V41C44,38.3,41.8,36,39,36z"
 		/>
 </g>
 </svg>